:SAMPLES-PER-SECOND 30
:FULLY-SPECIFIED
:DEGREES
108
root  -37.5279 39.965 29.8895 178.891 -21.3643 174.857
RightUpLeg  -18.3102 14.8253 -6.91568
RightLeg  55.608 4.29432 6.29092
RightFoot  4.08503 -1.06136 8.1411
RightToes  1.74622e-010 0 -3.6325e-017
Spine  7.21656 1.45604 3.45471
Spine1  8.00701 3.10683 -6.40889
HEad  -2.59189 -8.07398 3.97329
LeftShoulder1  8.84887 -12.2406 -49.063
LeftArm  -6.81426 24.4195 -28.0305
LeftForeArm  31.9435 -6.02102 -6.01558
LeftHand  -0.244104 0.0205437 5.32207
RightShoulder  6.93529 10.5032 43.1581
RightArm  12.2624 0.501262 36.8339
RightForeArm  -5.14715 22.6321 5.59631
RightHand  -1.10868 1.86029 -17.8224
LeftUpLeg  -4.23157 10.7016 6.42919
LeftLeg  16.3504 -1.65572 -1.12849
LeftFoot  -8.39519 0.345461 -11.4378
LeftToes  -3.34697e-010 -1.70107e-010 -9.05613e-011
109
root  -38.4107 40.2214 29.6842 178.837 -18.3573 175.774
RightUpLeg  -22.1029 8.97807 -5.8754
RightLeg  57.6644 0.905023 1.15771
RightFoot  4.80477 -0.849366 6.16677
RightToes  1.74622e-010 0 -3.6325e-017
Spine  7.87416 0.945827 3.40349
Spine1  7.14092 2.28011 -5.1627
HEad  -2.10105 -7.23625 3.07899
LeftShoulder1  8.71394 -12.124 -48.6731
LeftArm  -8.31023 22.3347 -25.1946
LeftForeArm  30.8018 -6.40499 -5.33882
LeftHand  -0.244104 0.0205437 5.32207
RightShoulder  6.87074 10.355 43.2168
RightArm  6.57566 -0.980895 35.0808
RightForeArm  -4.82753 15.5577 7.34577
RightHand  -1.31254 2.66563 -19.0081
LeftUpLeg  -2.1674 11.2163 6.62157
LeftLeg  14.6854 0.828299 -1.1217
LeftFoot  -8.62812 0.306056 -10.7283
LeftToes  -3.34697e-010 -1.70107e-010 -9.05613e-011
110
root  -39.2276 40.4862 29.4133 178.825 -15.7639 176.84
RightUpLeg  -24.5576 3.20858 -3.66932
RightLeg  56.0216 -0.378866 -1.04613
RightFoot  2.69025 -0.556535 4.69522
RightToes  1.74622e-010 0 -3.6325e-017
Spine  8.44247 0.532391 3.55461
Spine1  6.58142 1.59319 -3.9438
HEad  -2.10748 -6.3263 2.96434
LeftShoulder1  8.44726 -11.8954 -47.8738
LeftArm  -10.3186 20.1007 -22.5638
LeftForeArm  27.7894 -7.24358 -4.66268
LeftHand  -0.244104 0.0205437 5.32207
RightShoulder  6.87446 10.3235 43.3457
RightArm  -0.401595 -2.93858 32.1471
RightForeArm  -0.304395 9.37114 8.92935
RightHand  -1.25485 2.5948 -18.3127
LeftUpLeg  -0.0688525 11.0672 7.08913
LeftLeg  12.6234 3.61282 -1.60349
LeftFoot  -8.83737 0.27015 -9.92227
LeftToes  -3.34697e-010 -1.70107e-010 -9.05613e-011
111
root  -39.9786 40.6478 29.0496 178.961 -12.9661 177.567
RightUpLeg  -26.2558 -0.947418 -1.19408
RightLeg  51.4071 0.0947716 -0.258626
RightFoot  1.19502 -0.571005 5.26743
RightToes  1.74622e-010 0 -3.6325e-017
Spine  8.98768 0.383307 3.34649
Spine1  6.10364 1.22359 -3.04509
HEad  -2.55928 -5.75499 3.13474
LeftShoulder1  8.08098 -11.6266 -46.5868
LeftArm  -11.9675 18.1652 -20.1067
LeftForeArm  23.5783 -8.84974 -4.297
LeftHand  -0.244104 0.0205437 5.32207
RightShoulder  6.90564 10.3944 43.319
RightArm  -1.85308 -5.58897 29.0806
RightForeArm  2.75265 5.7182 8.8931
RightHand  -1.06841 1.92949 -17.0428
LeftUpLeg  2.12872 10.1807 7.36878
LeftLeg  10.5726 7.2836 -2.49621
LeftFoot  -9.46674 0.214514 -9.64549
LeftToes  -3.34697e-010 -1.70107e-010 -9.05613e-011
112
root  -40.6743 40.7164 28.6005 179.213 -10.472 178.121
RightUpLeg  -27.3218 -4.03628 1.41494
RightLeg  44.6795 0.834694 0.590324
RightFoot  0.832828 -0.597909 5.65046
RightToes  1.74622e-010 0 -3.6325e-017
Spine  9.42123 0.155749 2.81803
Spine1  5.67594 0.720771 -1.95386
HEad  -2.94448 -4.87968 3.48925
LeftShoulder1  7.75545 -11.3986 -45.3573
LeftArm  -13.1897 16.7442 -17.4604
LeftForeArm  19.5839 -11.2989 -4.03172
LeftHand  -0.244104 0.0205437 5.32207
RightShoulder  6.88767 10.4265 43.0942
RightArm  -0.992674 -8.57296 26.1951
RightForeArm  5.6574 4.15334 8.6528
RightHand  -0.98351 1.46214 -16.7447
LeftUpLeg  4.01322 9.11504 7.22913
LeftLeg  8.95127 10.7822 -3.10703
LeftFoot  -10.1593 0.157712 -9.36105
LeftToes  -3.34697e-010 -1.70107e-010 -9.05613e-011
113
root  -41.3079 40.6926 28.0737 179.522 -8.78224 178.414
RightUpLeg  -27.6211 -7.3295 3.84519
RightLeg  36.408 1.51286 0.932733
RightFoot  0.278429 -0.520744 5.13231
RightToes  1.74622e-010 0 -3.6325e-017
Spine  9.63145 -0.358346 1.74261
Spine1  5.54263 -0.17905 -0.602418
HEad  -3.49927 -3.83947 3.60811
LeftShoulder1  7.54342 -11.2514 -44.5228
LeftArm  -14.3932 15.4256 -14.4735
LeftForeArm  16.9365 -14.0187 -3.69252
LeftHand  -0.244104 0.0205437 5.32207
RightShoulder  6.78346 10.3264 42.728
RightArm  -0.268226 -11.4873 23.6103
RightForeArm  7.44107 3.8397 8.51619
RightHand  -0.999209 1.41327 -17.1202
LeftUpLeg  5.27882 8.47827 6.64347
LeftLeg  8.3375 13.0416 -3.26537
LeftFoot  -11.1338 0.082847 -8.76872
LeftToes  -3.34697e-010 -1.70107e-010 -9.05613e-011
114
root  -41.8796 40.5541 27.452 179.8 -7.62648 178.165
RightUpLeg  -27.2227 -11.1318 5.81461
RightLeg  27.265 3.22389 1.42355
RightFoot  -0.473288 -0.515405 5.3835
RightToes  1.74622e-010 0 -3.6325e-017
Spine  9.69921 -0.979612 0.0241121
Spine1  5.63125 -1.20071 0.631865
HEad  -4.33194 -2.76891 3.62394
LeftShoulder1  7.39183 -11.156 -43.881
LeftArm  -15.6547 13.7741 -11.3631
LeftForeArm  16.0233 -16.2611 -3.48672
LeftHand  -0.244104 0.0205437 5.32207
RightShoulder  6.55006 10.0465 42.0671
RightArm  -0.20955 -14.4199 21.7181
RightForeArm  6.98493 4.32227 8.40605
RightHand  -1.00136 1.4385 -17.0942
LeftUpLeg  6.40087 8.11614 5.60348
LeftLeg  8.34475 14.4288 -3.35374
LeftFoot  -12.7577 -0.0308274 -8.5739
LeftToes  -3.34697e-010 -1.70107e-010 -9.05613e-011
115
root  -42.389 40.3761 26.7504 -179.942 -6.6419 177.578
RightUpLeg  -26.1617 -13.4865 6.71669
RightLeg  17.5907 3.98073 1.93625
RightFoot  -0.666959 -0.584735 6.20135
RightToes  1.74622e-010 0 -3.6325e-017
Spine  9.79952 -1.48354 -1.75324
Spine1  5.60637 -2.06482 1.73258
HEad  -5.11285 -1.80253 3.724
LeftShoulder1  7.22635 -11.036 -43.2168
LeftArm  -16.7444 11.762 -8.55541
LeftForeArm  16.305 -17.7829 -3.44539
LeftHand  -0.244104 0.0205437 5.32207
RightShoulder  6.18197 9.59329 41.0012
RightArm  -1.05168 -17.7712 20.7769
RightForeArm  5.21 5.36645 8.16884
RightHand  -0.94721 1.23523 -16.6671
LeftUpLeg  8.00579 7.87425 4.39436
LeftLeg  7.65836 15.5226 -3.75725
LeftFoot  -14.2658 -0.140512 -8.8372
LeftToes  -3.34697e-010 -1.70107e-010 -9.05613e-011
116
root  -42.8447 40.2117 25.9901 -179.619 -5.91787 176.957
RightUpLeg  -24.122 -8.82389 3.88105
RightLeg  7.50582 -3.36894 3.67517
RightFoot  -0.436148 -0.523132 5.44965
RightToes  1.74622e-010 0 -3.6325e-017
Spine  9.95346 -1.88108 -3.06369
Spine1  5.33488 -2.77473 2.65885
HEad  -5.62647 -1.08714 3.86115
LeftShoulder1  7.02825 -10.8299 -42.5991
LeftArm  -18.3423 9.47151 -6.47452
LeftForeArm  17.1992 -18.7911 -3.40383
LeftHand  -0.244104 0.0205437 5.32207
RightShoulder  5.80658 9.12628 39.8457
RightArm  -2.7064 -21.6453 20.5002
RightForeArm  3.37596 6.63923 7.71256
RightHand  -0.891587 0.957501 -16.3696
LeftUpLeg  9.72525 7.57696 3.23956
LeftLeg  6.55444 16.6141 -4.32967
LeftFoot  -15.1645 -0.194359 -8.5453
LeftToes  -3.34697e-010 -1.70107e-010 -9.05613e-011
117
root  -43.2862 40.0004 25.1334 -179.371 -5.54128 176.377
RightUpLeg  -22.3216 -2.31836 0.25718
RightLeg  -0.915845 -12.3476 6.07997
RightFoot  -0.500744 -0.327005 3.39734
RightToes  1.74622e-010 0 -3.6325e-017
Spine  10.1135 -2.28977 -3.69855
Spine1  4.99897 -3.33 2.99682
HEad  -6.15412 -0.606846 3.86468
LeftShoulder1  6.84368 -10.5947 -42.1424
LeftArm  -20.9671 6.95771 -5.31862
LeftForeArm  18.1165 -19.654 -3.36251
LeftHand  -0.244104 0.0205437 5.32207
RightShoulder  5.58126 8.86647 39.0314
RightArm  -4.79281 -25.5623 20.4555
RightForeArm  1.78946 7.50167 7.12653
RightHand  -0.855778 0.798148 -16.1118
LeftUpLeg  11.1772 7.41455 2.19563
LeftLeg  6.34624 17.3297 -4.64419
LeftFoot  -16.2835 -0.229384 -7.5812
LeftToes  -3.34697e-010 -1.70107e-010 -9.05613e-011
